Coordinates
version=1
nRows=8
nColumns=28
inDegrees=yes

Units are S.I. units (second, meters, Newtons, ...)
Angles are in degrees.

endheader
time	pelvis_tilt	pelvis_list	pelvis_rotation	pelvis_tx	pelvis_ty	pelvis_tz	hip_flexion_r	hip_adduction_r	hip_rotation_r	knee_angle_r	ankle_angle_r	subtalar_angle_r	mtp_angle_r	hip_flexion_l	hip_adduction_l	hip_rotation_l	knee_angle_l	socket_flexion	socket_adduction	socket_rotation	socket_tx	socket_ty	socket_tz	foot_flex	lumbar_extension	lumbar_bending	lumbar_rotation
      0.00000000	     -1.17237794	     -0.64437512	     -7.31254221	     -0.78844528	      0.96480463	      0.29087095	    -23.13013985	     -0.07695814	      8.95279889	     -5.65272640	     -5.22984928	    -20.67421957	     12.95294943	     25.74771687	     -1.54568197	      3.22901504	     -0.91594365	      0.91838328	     -4.62724554	     -0.61584364	      0.01301721	      0.00241024	     -0.00389422	     -1.44965680	     -7.10713274	      0.95285158	      4.36946434
      0.00416667	     -1.06321116	     -0.56693415	     -7.11444010	     -0.78224026	      0.96329578	      0.29009647	    -23.12914350	     -0.27310627	      7.13475774	     -6.39374083	     -5.00521483	    -18.65201793	     20.00447346	     26.16295256	     -1.30977475	      1.84249765	     -1.47520017	      1.34448273	     -4.62681272	      0.88706110	      0.01695244	      0.00190315	     -0.00367246	     -2.09002852	     -7.12900015	      0.92420859	      3.06948499
      0.00833333	     -1.00510923	     -0.51899253	     -7.18569828	     -0.77600809	      0.96214533	      0.28976845	    -23.38315958	     -0.39909807	      7.17515384	     -6.66068420	     -5.11047965	    -18.63357727	     20.02782597	     26.21579157	     -1.32791409	      1.83659282	     -1.81184679	      1.68041023	     -4.50439481	      0.76259006	      0.01782992	      0.00161596	     -0.00412555	     -2.35518341	     -7.04153551	      0.83595688	      3.12094898
      0.01250000	     -1.01148042	     -0.46281021	     -7.24501487	     -0.76964440	      0.96093081	      0.28962985	    -23.50393870	     -0.49978898	      7.07401636	     -7.02177682	     -5.41910205	    -18.60826357	     20.10814562	     26.34452502	     -1.39748554	      1.72783854	     -2.11700591	      1.99152064	     -4.26221409	      0.51741463	      0.01887590	      0.00128107	     -0.00483563	     -3.12307899	     -7.15943289	      0.58496594	      3.28374020
      0.01666667	     -1.00607809	     -0.39787485	     -7.35852215	     -0.76303099	      0.95967813	      0.28944456	    -23.59490347	     -0.66099886	      6.88981988	     -7.46211352	     -5.80647102	    -18.59634359	     20.26312095	     26.37020757	     -1.48876396	      1.68715715	     -2.40415254	      2.28139634	     -4.08825003	      0.39252881	      0.01939831	      0.00075660	     -0.00579163	     -3.75203898	     -7.13515486	      0.44662059	      3.49096111
      0.02083333	     -0.95258270	     -0.35081781	     -7.38548026	     -0.75615910	      0.95845309	      0.28895419	    -23.83807995	     -0.77617705	      6.90755954	     -7.78724570	     -5.93516493	    -18.58091682	     20.30744949	     26.35808253	     -1.47668327	      1.65257150	     -2.73699995	      2.61654789	     -3.96107665	      0.29121804	      0.01979210	      0.00032710	     -0.00618453	     -4.04504223	     -6.96755311	      0.42378200	      3.53473081
      0.02500000	     -0.96891541	     -0.27549546	     -7.44979302	     -0.74926709	      0.95726037	      0.28879532	    -23.88043949	     -0.89985850	      6.70863402	     -8.29396965	     -6.36321104	    -18.55691854	     20.44855669	     26.38860643	     -1.53703125	      1.52085161	     -3.05791881	      2.86143800	     -3.72621308	      0.10068469	      0.02000000	     -0.00021711	     -0.00698576	     -4.92063521	     -6.97268670	      0.20011472	      3.67587278
      0.02916667	     -0.98683363	     -0.16897793	     -7.56956890	     -0.74224688	      0.95606731	      0.28859574	    -23.84333008	     -1.11472896	      6.42128761	     -8.90203757	     -6.93363973	    -18.53472160	     20.72210913	     26.38702724	     -1.60382493	      1.42663961	     -3.42851622	      3.05649134	     -3.53711641	     -0.00661845	      0.02000000	     -0.00082242	     -0.00809708	     -5.59274296	     -6.92036088	     -0.01251475	      3.87556725
